<svg width="345" height="345" viewBox="0 0 345 345" fill="none" xmlns="http://www.w3.org/2000/svg">
<g id="Primary Logo">
<path d="M0 172.507C0 267.772 77.2267 345 172.49 345C267.755 345 344.982 267.772 344.982 172.507C344.982 126.787 344.986 0.00563542 345 0.00563542C345 -0.0106821 222.036 0.0136267 172.49 0.0136267C77.2267 0.0136267 0 77.2416 0 172.507Z" fill="#0D397A"/>
<path fill-rule="evenodd" clip-rule="evenodd" d="M151.254 116.215H196.117C214.795 116.215 229.937 131.356 229.937 150.035C229.937 168.713 214.795 183.855 196.117 183.855H181.6C172.768 183.855 165.607 191.014 165.607 199.847C165.607 203.67 165.607 215.84 165.607 215.84C165.607 215.84 176.589 215.84 181.6 215.84H196.117C232.46 215.84 261.922 186.378 261.922 150.035C261.922 113.691 232.46 84.2292 196.117 84.2292H148.055C132.157 84.2292 119.269 97.1175 119.269 113.016V250.551C119.269 255.339 119.269 266.544 119.269 266.544C119.269 266.544 131.216 266.544 135.261 266.544C144.093 266.544 151.254 259.383 151.254 250.551V116.215Z" fill="#FAFAFD"/>
<path d="M211.181 151.252C211.181 139.771 201.873 130.463 190.391 130.463C178.909 130.463 169.603 139.771 169.603 151.252C169.603 156.762 169.6 172.043 169.6 172.043C169.6 172.043 184.421 172.042 190.391 172.042C201.873 172.042 211.181 162.734 211.181 151.252Z" fill="#FAFAFD"/>
</g>
</svg>
